<svg width="97" height="97" viewBox="0 0 97 97" fill="none" xmlns="http://www.w3.org/2000/svg">
<path d="M50.5095 57.6514C50.5095 56.902 50.2451 56.329 49.7161 55.9324C49.1872 55.5268 48.2351 55.1037 46.8599 54.6629C45.4847 54.2133 44.396 53.7726 43.5938 53.3406C41.4076 52.1593 40.3145 50.5682 40.3145 48.5671C40.3145 47.5268 40.6054 46.6012 41.1872 45.7902C41.7778 44.9704 42.6197 44.3313 43.7128 43.8728C44.8147 43.4144 46.0489 43.1852 47.4153 43.1852C48.7905 43.1852 50.0158 43.4365 51.0913 43.939C52.1668 44.4326 52.9999 45.1335 53.5905 46.0414C54.19 46.9494 54.4897 47.9808 54.4897 49.1357H50.5227C50.5227 48.2541 50.2451 47.5709 49.6897 47.0861C49.1343 46.5924 48.3541 46.3456 47.3492 46.3456C46.3795 46.3456 45.6258 46.5527 45.088 46.9671C44.5503 47.3726 44.2814 47.9103 44.2814 48.5803C44.2814 49.2062 44.5944 49.7307 45.2203 50.1538C45.855 50.577 46.785 50.9737 48.0103 51.3439C50.2671 52.0227 51.9112 52.8646 52.9426 53.8695C53.974 54.8745 54.4897 56.1263 54.4897 57.6249C54.4897 59.291 53.8594 60.6001 52.5988 61.5522C51.3382 62.4954 49.6412 62.9671 47.5079 62.9671C46.0269 62.9671 44.6781 62.6982 43.4616 62.1604C42.2451 61.6139 41.315 60.869 40.6715 59.9257C40.0368 58.9825 39.7194 57.8894 39.7194 56.6464H43.6996C43.6996 58.7709 44.969 59.8332 47.5079 59.8332C48.4511 59.8332 49.1872 59.6436 49.7161 59.2646C50.2451 58.8767 50.5095 58.339 50.5095 57.6514ZM62.3707 43.4497L67.3161 57.4133L72.2351 43.4497H77.445V62.7026H73.4649V57.4398L73.8616 48.3555L68.6649 62.7026H65.9409L60.7574 48.3687L61.1541 57.4398V62.7026H57.1872V43.4497H62.3707Z" fill="black"/>
<path d="M22.092 60.5891L31.8863 33.7063H36.2215L23.7893 67.1034H20.5551L14.9354 52.6986H10.692V49.1662H17.9173L22.092 60.5891Z" fill="black"/>
<path d="M87.1857 33.6938L32.449 33.6938L31.1857 36.6938L87.1857 36.6938V33.6938Z" fill="black"/>
</svg>
