<svg width="96" height="96" viewBox="0 0 96 96" fill="none" xmlns="http://www.w3.org/2000/svg">
<path d="M52.2714 57.0479C52.2714 56.2986 52.0069 55.7256 51.478 55.3289C50.949 54.9234 49.997 54.5003 48.6218 54.0595C47.2466 53.6099 46.1579 53.1692 45.3557 52.7372C43.1694 51.5559 42.0763 49.9648 42.0763 47.9637C42.0763 46.9234 42.3672 45.9978 42.949 45.1868C43.5397 44.367 44.3815 43.7278 45.4747 43.2694C46.5766 42.811 47.8107 42.5818 49.1771 42.5818C50.5523 42.5818 51.7777 42.8331 52.8532 43.3356C53.9287 43.8292 54.7617 44.53 55.3523 45.438C55.9518 46.346 56.2515 47.3774 56.2515 48.5322H52.2846C52.2846 47.6507 52.0069 46.9675 51.4515 46.4827C50.8961 45.989 50.116 45.7422 49.111 45.7422C48.1413 45.7422 47.3876 45.9493 46.8499 46.3637C46.3121 46.7692 46.0433 47.3069 46.0433 47.9769C46.0433 48.6028 46.3562 49.1273 46.9821 49.5504C47.6168 49.9736 48.5468 50.3703 49.7722 50.7405C52.0289 51.4193 53.673 52.2612 54.7044 53.2661C55.7358 54.2711 56.2515 55.5229 56.2515 57.0215C56.2515 58.6876 55.6212 59.9967 54.3606 60.9488C53.1 61.892 51.403 62.3636 49.2697 62.3636C47.7887 62.3636 46.44 62.0948 45.2234 61.557C44.0069 61.0105 43.0769 60.2656 42.4333 59.3223C41.7986 58.3791 41.4813 57.286 41.4813 56.043H45.4614C45.4614 58.1675 46.7309 59.2298 49.2697 59.2298C50.213 59.2298 50.949 59.0402 51.478 58.6612C52.0069 58.2733 52.2714 57.7355 52.2714 57.0479ZM64.1325 42.8463L69.078 56.8099L73.997 42.8463H79.2069V62.0992H75.2267V56.8364L75.6234 47.7521L70.4267 62.0992H67.7028L62.5193 47.7653L62.916 56.8364V62.0992H58.949V42.8463H64.1325Z" fill="#3B82F6"/>
<path d="M23.8538 59.9857L33.6482 33.1029H37.9834L25.5512 66.5H22.317L16.6973 52.0952H12.4538V48.5628H19.6792L23.8538 59.9857Z" fill="#3B82F6"/>
<path d="M88.6871 33.1221L33.9504 33.1221L32.6871 36.1221L88.6871 36.1221V33.1221Z" fill="#3B82F6"/>
</svg>
