<svg width="256" height="64" viewBox="0 0 256 64" fill="none" xmlns="http://www.w3.org/2000/svg">
<rect width="256" height="64" fill="#3B82F6"/>
<path d="M59.964 40.2345C59.964 39.4852 59.6996 38.9122 59.1707 38.5155C58.6417 38.11 57.6897 37.6869 56.3145 37.2461C54.9393 36.7965 53.8505 36.3558 53.0483 35.9238C50.8621 34.7425 49.769 33.1514 49.769 31.1502C49.769 30.11 50.0599 29.1844 50.6417 28.3734C51.2324 27.5536 52.0742 26.9144 53.1673 26.456C54.2693 25.9976 55.5034 25.7684 56.8698 25.7684C58.245 25.7684 59.4704 26.0197 60.5459 26.5222C61.6213 27.0158 62.4544 27.7166 63.045 28.6246C63.6445 29.5326 63.9442 30.564 63.9442 31.7188H59.9773C59.9773 30.8373 59.6996 30.1541 59.1442 29.6693C58.5888 29.1756 57.8087 28.9288 56.8037 28.9288C55.834 28.9288 55.0803 29.1359 54.5426 29.5502C54.0048 29.9558 53.7359 30.4935 53.7359 31.1635C53.7359 31.7894 54.0489 32.3139 54.6748 32.737C55.3095 33.1602 56.2395 33.5569 57.4649 33.9271C59.7216 34.6059 61.3657 35.4478 62.3971 36.4527C63.4285 37.4577 63.9442 38.7095 63.9442 40.2081C63.9442 41.8742 63.3139 43.1833 62.0533 44.1354C60.7927 45.0786 59.0957 45.5502 56.9624 45.5502C55.4814 45.5502 54.1326 45.2814 52.9161 44.7436C51.6996 44.1971 50.7696 43.4522 50.126 42.5089C49.4913 41.5657 49.174 40.4726 49.174 39.2296H53.1541C53.1541 41.3541 54.4235 42.4164 56.9624 42.4164C57.9056 42.4164 58.6417 42.2268 59.1707 41.8478C59.6996 41.4599 59.964 40.9221 59.964 40.2345ZM81.7558 38.8726C81.6059 40.9442 80.839 42.575 79.4549 43.7651C78.0797 44.9552 76.2638 45.5502 74.007 45.5502C71.5387 45.5502 69.5949 44.7216 68.1756 43.0643C66.7651 41.3982 66.0599 39.115 66.0599 36.2147V35.0379C66.0599 33.1866 66.3861 31.5558 67.0384 30.1453C67.6908 28.7348 68.6208 27.6549 69.8285 26.9056C71.045 26.1475 72.4555 25.7684 74.0599 25.7684C76.2814 25.7684 78.0709 26.3635 79.4285 27.5536C80.7861 28.7436 81.5706 30.4142 81.7822 32.5651H77.8153C77.7183 31.3221 77.3701 30.423 76.7706 29.8676C76.18 29.3034 75.2764 29.0213 74.0599 29.0213C72.7376 29.0213 71.7459 29.4974 71.0847 30.4494C70.4324 31.3927 70.0974 32.8604 70.0797 34.8527V36.3073C70.0797 38.3877 70.3927 39.9084 71.0186 40.8693C71.6533 41.8301 72.6494 42.3106 74.007 42.3106C75.2324 42.3106 76.1448 42.0329 76.7442 41.4775C77.3525 40.9133 77.7007 40.045 77.7888 38.8726H81.7558ZM100.03 45.2858H96.0632V37.0345H88.3277V45.2858H84.3607V26.0329H88.3277V33.8345H96.0632V26.0329H100.03V45.2858ZM119.323 36.0957C119.323 37.991 118.988 39.6527 118.318 41.0808C117.648 42.5089 116.687 43.6109 115.435 44.3866C114.192 45.1624 112.764 45.5502 111.151 45.5502C109.555 45.5502 108.132 45.1668 106.88 44.3998C105.628 43.6329 104.658 42.5398 103.971 41.1205C103.283 39.6924 102.935 38.0527 102.926 36.2015V35.2494C102.926 33.3541 103.265 31.688 103.944 30.2511C104.632 28.8053 105.597 27.699 106.84 26.9321C108.092 26.1563 109.52 25.7684 111.124 25.7684C112.729 25.7684 114.152 26.1563 115.395 26.9321C116.647 27.699 117.613 28.8053 118.291 30.2511C118.979 31.688 119.323 33.3497 119.323 35.2362V36.0957ZM115.303 35.223C115.303 33.2042 114.941 31.6704 114.219 30.6213C113.496 29.5723 112.464 29.0478 111.124 29.0478C109.793 29.0478 108.766 29.5679 108.043 30.6081C107.321 31.6395 106.955 33.1558 106.946 35.1569V36.0957C106.946 38.0615 107.307 39.5866 108.03 40.6709C108.753 41.7552 109.793 42.2974 111.151 42.2974C112.482 42.2974 113.505 41.7772 114.219 40.737C114.933 39.688 115.294 38.1629 115.303 36.1618V35.223ZM138.02 36.0957C138.02 37.991 137.685 39.6527 137.015 41.0808C136.345 42.5089 135.384 43.6109 134.133 44.3866C132.89 45.1624 131.462 45.5502 129.848 45.5502C128.253 45.5502 126.829 45.1668 125.577 44.3998C124.325 43.6329 123.356 42.5398 122.668 41.1205C121.981 39.6924 121.632 38.0527 121.624 36.2015V35.2494C121.624 33.3541 121.963 31.688 122.642 30.2511C123.329 28.8053 124.295 27.699 125.538 26.9321C126.789 26.1563 128.217 25.7684 129.822 25.7684C131.426 25.7684 132.85 26.1563 134.093 26.9321C135.345 27.699 136.31 28.8053 136.989 30.2511C137.676 31.688 138.02 33.3497 138.02 35.2362V36.0957ZM134 35.223C134 33.2042 133.639 31.6704 132.916 30.6213C132.193 29.5723 131.162 29.0478 129.822 29.0478C128.491 29.0478 127.464 29.5679 126.741 30.6081C126.018 31.6395 125.652 33.1558 125.643 35.1569V36.0957C125.643 38.0615 126.005 39.5866 126.728 40.6709C127.451 41.7552 128.491 42.2974 129.848 42.2974C131.179 42.2974 132.202 41.7772 132.916 40.737C133.63 39.688 133.992 38.1629 134 36.1618V35.223ZM144.87 42.099H153.293V45.2858H140.903V26.0329H144.87V42.099ZM167.508 26.0329L172.453 39.9965L177.372 26.0329H182.582V45.2858H178.602V40.023L178.999 30.9387L173.802 45.2858H171.078L165.895 30.9519L166.291 40.023V45.2858H162.324V26.0329H167.508ZM197.63 36.942H190.014V42.099H198.952V45.2858H186.047V26.0329H198.926V29.2461H190.014V33.8345H197.63V36.942ZM211.263 40.2345C211.263 39.4852 210.999 38.9122 210.47 38.5155C209.941 38.11 208.989 37.6869 207.614 37.2461C206.238 36.7965 205.15 36.3558 204.347 35.9238C202.161 34.7425 201.068 33.1514 201.068 31.1502C201.068 30.11 201.359 29.1844 201.941 28.3734C202.531 27.5536 203.373 26.9144 204.466 26.456C205.568 25.9976 206.803 25.7684 208.169 25.7684C209.544 25.7684 210.77 26.0197 211.845 26.5222C212.92 27.0158 213.754 27.7166 214.344 28.6246C214.944 29.5326 215.243 30.564 215.243 31.7188H211.276C211.276 30.8373 210.999 30.1541 210.443 29.6693C209.888 29.1756 209.108 28.9288 208.103 28.9288C207.133 28.9288 206.379 29.1359 205.842 29.5502C205.304 29.9558 205.035 30.4935 205.035 31.1635C205.035 31.7894 205.348 32.3139 205.974 32.737C206.609 33.1602 207.539 33.5569 208.764 33.9271C211.021 34.6059 212.665 35.4478 213.696 36.4527C214.728 37.4577 215.243 38.7095 215.243 40.2081C215.243 41.8742 214.613 43.1833 213.352 44.1354C212.092 45.0786 210.395 45.5502 208.262 45.5502C206.781 45.5502 205.432 45.2814 204.215 44.7436C202.999 44.1971 202.069 43.4522 201.425 42.5089C200.79 41.5657 200.473 40.4726 200.473 39.2296H204.453C204.453 41.3541 205.723 42.4164 208.262 42.4164C209.205 42.4164 209.941 42.2268 210.47 41.8478C210.999 41.4599 211.263 40.9221 211.263 40.2345ZM233.61 45.2858H229.643V37.0345H221.908V45.2858H217.941V26.0329H221.908V33.8345H229.643V26.0329H233.61V45.2858Z" fill="white"/>
<path d="M32.5211 42.083L42.3155 15.2001H46.6507L34.2185 48.5972H30.9843L25.3646 34.1924H21.1211V30.66H28.3465L32.5211 42.083Z" fill="white"/>
<path d="M230.306 14.893H42.7646L41.6237 18.029H230.306V14.893Z" fill="white"/>
</svg>
